<svg width="193" height="57" xmlns="http://www.w3.org/2000/svg"><g fill="none" fill-rule="evenodd"><path d="M44.983 2h17.798l-.49 2.074c-4.04.168-5.078 1.4-6.225 5.716l-3.003 11.546c-.819 3.139-1.637 5.829-1.637 8.239 0 4.26 3.057 6.782 7.807 6.782 4.532 0 7.425-2.803 9.664-8.576 1.474-3.81 2.839-8.519 4.04-14.18.764-3.587 1.146-5.773 1.146-6.613 0-2.018-1.2-2.69-4.15-2.914L70.372 2H82l-.054 2.074c-1.857.28-3.058.784-3.877 2.017-1.31 1.962-2.184 7.398-4.532 15.862C70.152 34.115 66.276 40 56.994 40 48.86 40 44 35.908 44 28.902c0-1.68.273-3.979.928-6.557l3.604-13.788a7.994 7.994 0 00.327-2.298c0-1.737-1.2-2.017-4.368-2.185L44.983 2m53.081 33.25c0 .601.392.984.952.984 1.008 0 2.184-1.584 3.864-4.64l1.12.764C101.592 37.488 99.408 40 95.88 40c-2.688 0-4.256-1.365-4.256-3.93 0-.82.168-1.91.504-3.112l3.024-10.425c.336-1.201.56-2.02.56-2.511 0-.874-.448-1.31-1.344-1.31-3.248 0-7.28 6.877-11.412 20.97H76.74c3.292-10.927 5.14-17.204 5.14-19.442 0-.983-.448-1.528-1.008-1.528-1.008 0-2.296 1.474-3.472 4.421H76C77.96 17.783 81.208 15 84.4 15c2.016 0 3.584 1.364 3.584 3.93 0 .764-.168 1.965-.448 3.548l.168.11C90.336 17.51 93.36 15 97.336 15c3.024 0 4.816 1.747 4.816 4.53 0 1.474-.616 3.33-1.344 5.786L98.4 33.722c-.224.765-.336 1.31-.336 1.528M112.671 40c-2.883 0-4.692-1.638-4.692-4.094 0-1.146.283-2.402.791-3.821l3.336-10.044c.283-.819.452-1.528.452-2.074 0-.765-.339-1.092-1.074-1.092-.848 0-2.431 1.42-3.958 4.367L106 22.533c2.488-5.077 5.314-7.533 8.876-7.533 2.94 0 4.693 1.583 4.693 4.04 0 1.09-.226 2.346-.735 3.82l-3.336 10.044c-.283.763-.452 1.473-.452 2.073 0 .765.34 1.147.961 1.147 1.13 0 2.657-1.747 4.467-5.185l1.526.654c-2.544 5.622-5.541 8.407-9.329 8.407M118 2c2.182 0 4 1.818 4 4 0 2.243-1.94 4-4 4s-4-1.94-4-4 1.757-4 4-4m5.11 15.382l.61-2.357h4.375L130.365 7h6.755l-2.27 8.025H140l-.665 2.357h-5.15L130.2 31.47c-.277 1.067-.554 2.077-.554 3.087 0 1.066.499 1.683 1.273 1.683 1.33 0 2.714-1.852 4.708-5.5l1.439.617C134.019 37.25 131.639 40 127.984 40c-3.101 0-4.984-1.908-4.984-5.332 0-1.291.222-2.526.443-3.367l3.987-13.919h-4.32m33.663 2.52c0-1.689-.871-2.614-2.265-2.614-3.079 0-5.809 3.54-7.609 10.457 6.447-1.525 9.874-4.957 9.874-7.843zM148.003 40c-5.634 0-9.003-2.996-9.003-8.388C139 22.952 146.609 15 154.74 15c4.53 0 7.26 2.179 7.26 5.01 0 4.358-5.46 8.116-15.566 9.64-.232.982-.406 1.962-.406 2.942 0 2.887 1.336 4.357 3.95 4.357 2.671 0 5.11-1.688 8.014-5.01l1.569 1.09C156.25 37.656 152.3 40 148.002 40zm22.771-16.895c-2.102 4.265-2.898 8.198-2.898 9.805 0 2.215.966 3.378 2.785 3.378 1.989 0 3.694-1.274 5.171-3.822 1.989-3.378 3.183-7.977 3.183-10.746 0-2.327-.966-3.49-2.842-3.49-2.046 0-3.75 1.606-5.399 4.875zM167.535 40c-3.92 0-6.535-2.826-6.535-7.59 0-4.154 1.307-8.198 3.921-11.908 2.728-3.934 6.081-5.928 9.49-5.928 2.956 0 4.944 1.274 6.082 3.933l.113.055 3.04-10.414c.114-.387.228-1.218.228-1.828 0-1.329-1.25-1.661-4.206-1.772l.512-1.718L192 2l-9.007 30.521c-.17.498-.341 1.219-.341 2.272 0 .886.397 1.385 1.08 1.385 1.363 0 2.386-1.662 4.148-4.71l1.136.776c-2.443 5.207-4.66 7.756-8.24 7.756-2.67 0-4.262-1.441-4.262-3.878 0-.388 0-.831.114-1.274-2.273 3.38-5.285 5.152-9.093 5.152z" fill="#BD2531"/><path d="M14 52.128v2.667h-.46l-.248-.65c-.764.581-1.55.855-2.45.855C8.563 55 7 53.416 7 51.125c0-.968.247-1.812.753-2.507C8.528 47.558 9.618 47 10.955 47c.865 0 1.584.24 2.202.718l.191-.639h.495l.067 2.462h-.472c-.337-1.265-1.123-1.971-2.112-1.971-1.37 0-2.315 1.265-2.315 3.418 0 2.143.888 3.328 2.292 3.328 1.135 0 1.91-.752 2.225-2.188H14m14.209-.758c1.15 0 1.681-.444 1.681-1.436 0-1.024-.497-1.459-1.56-1.459-.409 0-.497.063-.497.404v2.481c.132.01.265.01.376.01zM25 54.556c.929 0 1.14-.207 1.14-1.003v-4.28c0-.683-.189-.838-1.14-.848v-.414c.575.02 1.05.02 1.438.02.708 0 1.46-.03 2.28-.03 2.047 0 3.043.538 3.043 1.758 0 .92-.653 1.561-1.848 1.747.31.124.575.497.985 1.023l1.073 1.407c.31.413.653.64 1.029.682V55a20.82 20.82 0 00-1.416-.031c-.288 0-.576 0-.852.02l-1.782-2.388c-.365-.496-.586-.775-1.007-.775-.033 0-.066.01-.11.01v1.778c0 .724.243.941 1.029.941h.055v.434a180.74 180.74 0 00-2.457-.03c-.42 0-.907 0-1.46.03v-.434zm16 .011c.993 0 1.112-.32 1.112-1.35v-3.815c0-.732-.237-1-1.017-1H41V48c.828.041 1.632.062 2.424.062.84 0 2.211-.01 4.103-.062v1.804h-.484c-.296-1.134-.888-1.278-2.413-1.278-.59 0-.662.02-.662.32v2.268h.201c.934 0 1.277-.289 1.466-1.155h.497c-.047.443-.059.897-.059 1.35 0 .527.023 1 .06 1.434h-.474c-.177-.877-.567-1.155-1.537-1.155h-.154v1.845c0 .732.402 1.01 1.348 1.01 1.383 0 1.987-.35 2.247-1.546H48v2.093c-1.773-.041-3.216-.041-4.328-.041h-.697c-.674 0-1.336 0-1.975.051v-.433m20.006-.097c1.358 0 1.95-.945 1.95-2.918 0-2.129-.708-3.074-2.6-3.074-.325 0-.442.072-.442.27v4.663c0 .748.267 1.06 1.092 1.06zM57 54.564c.87-.01 1.057-.198 1.057-.956v-4.206c0-.748-.128-.987-1.057-.987V48c.44.02.905.02 1.358.02.65 0 1.3-.02 1.928-.02 3.1 0 4.714 1.298 4.714 3.687 0 1.07-.395 1.91-1.184 2.534-.825.644-1.789.779-3.124.779-.685 0-1.382-.031-2.101-.031-.488 0-1.01.02-1.591.031v-.436zm16 .021c.943-.021 1.08-.219 1.08-1.018V49.35c0-.706-.137-.924-.966-.924H73V48c.738.02 1.409.031 2 .031.625 0 1.296-.01 2-.031v.426h-.125c-.716 0-.955.26-.955.924v4.217c0 .758.216.986 1.08 1.018V55c-.909-.02-1.58-.031-2-.031-.545 0-1.216.01-2 .031v-.415m15.653-6.005c-.158-.01-.295-.01-.432-.01-1.148 0-1.62.332-1.8 1.432H86L86.084 48c.853.041 1.769.052 2.748.052 1.505 0 2.863-.01 4.073-.042L93 50.002h-.41c-.18-1.069-.674-1.442-1.758-1.442-.158 0-.327.01-.506.02v5.145c0 .652.232.829 1.085.85V55a34.86 34.86 0 00-1.769-.042c-.484 0-1.169.01-2.021.042v-.425c.842-.042 1.032-.198 1.032-.85V48.58m24.33.24c0-1.008-.115-1.298-.983-1.356v-.452c.628.023 1.224.035 1.757.035.575 0 1.203-.012 1.883-.047v.464c-.858.058-1.015.313-1.015 1.276v3.014c0 1.715.44 2.446 1.799 2.446.795 0 1.401-.29 1.704-.765.304-.487.356-1.125.356-2.006v-2.667c0-.916-.209-1.24-.973-1.321v-.43c.387.024.795.036 1.234.036.513 0 .942-.012 1.255-.035v.452c-.732.092-.952.406-.952 1.298v2.667c0 1.009-.072 1.774-.46 2.4-.47.753-1.349 1.171-2.54 1.171-1.098 0-1.894-.278-2.469-.928-.45-.51-.596-1.286-.596-2.423V48.82m17.08 5.63c.804-.092.963-.418.963-1.233v-4.29l-.127-.153c-.222-.265-.454-.356-.899-.376V48c.296.03.635.03 1.037.03.339 0 .751 0 1.207-.03l4.222 4.646V49.6c0-.846-.244-1.192-.984-1.202V48c.507.02.91.03 1.216.03.276 0 .7-.01 1.302-.03v.398c-.815.05-.973.397-.973 1.253V55h-.593l-4.826-5.431v3.648c0 .835.297 1.223.974 1.233v.418c-.71-.03-1.238-.03-1.587-.03-.339 0-.646.01-.932.04v-.428m16.937.135c.943-.021 1.08-.219 1.08-1.018V49.35c0-.706-.137-.924-.967-.924H147V48c.738.02 1.409.031 2 .031.625 0 1.295-.01 2-.031v.426h-.125c-.716 0-.955.26-.955.924v4.217c0 .758.216.986 1.08 1.018V55c-.91-.02-1.58-.031-2-.031-.545 0-1.216.01-2 .031v-.415m17.052-.142c1.41 0 2.043-1.116 2.043-3.437 0-2.276-.748-3.448-2.148-3.448-1.42 0-2.042 1.126-2.042 3.482 0 2.253.747 3.403 2.147 3.403zM160 51.006c0-2.345 1.6-4.006 4.01-4.006 1.19 0 2.137.364 2.906 1.15.715.739 1.084 1.684 1.084 2.833 0 1.172-.379 2.128-1.137 2.879-.779.774-1.747 1.138-2.947 1.138-2.358 0-3.916-1.65-3.916-3.994zm17.064 3.444c.803-.092.963-.418.963-1.233v-4.29l-.127-.153c-.223-.265-.455-.356-.9-.376V48c.297.03.635.03 1.037.03.339 0 .752 0 1.207-.03l4.222 4.646V49.6c0-.846-.244-1.192-.984-1.202V48c.507.02.91.03 1.216.03.276 0 .7-.01 1.302-.03v.398c-.815.05-.973.397-.973 1.253V55h-.593l-4.826-5.431v3.648c0 .835.297 1.223.974 1.233v.418c-.71-.03-1.238-.03-1.587-.03-.339 0-.646.01-.931.04v-.428M27.042 32.947c-2.763 0-2.755-.941-2.089-3.529l2.06-8.043.544-2.125.064-.25c-5.416 2.303-12.288 7.116-12.288 7.116l-.213.829v.004l-.632 2.47c-.693 2.705-1.374 3.528-4.016 3.528h-.667L8 40h18.198L28 32.947h-.958m-9.138-18.624l-.242.988L17 18c3.84-2.67 7.85-5.08 12.118-7.412l.22-.895.599-2.433L30 7c-4.51 2.065-12.096 7.323-12.096 7.323M15 25l.833-3.035.315-1.145c0-.004 4.24-2.758 6.312-3.82l2.821.799 1.719.487c-5.077 2.372-8.563 4.233-12 6.714z" fill="#002E4D"/><path d="M30 7l-.063.257-.598 2.412c-4.427 1.812-8.135 3.517-11.658 5.567C14.113 17.31 10.739 19.74 7 23c2.553-2.454 4.991-4.623 7.47-6.585a73.094 73.094 0 013.578-2.665C21.661 11.228 25.496 9.047 30 7m-4 10.89a98.951 98.951 0 00-9.34 4.638C11.421 25.482 6.402 28.97 2 33c3.186-3.113 6.896-6.25 10.828-9.157a108.435 108.435 0 014.243-3A104.09 104.09 0 0123.211 17l2.789.89M27 19l-.064.262-.54 2.224c-5.247 2.14-8.521 3.697-11.784 5.83v.004C12.046 29 9.492 31.037 6 34c3.642-3.562 6.279-6.068 8.968-8.145a.08.08 0 01.023-.016C18.269 23.309 21.633 21.41 27 19m2.569-2.596c.033.231.075.47.255.619.142.119.357.136.56.07.307-.1.525-.378.544-.635a.325.325 0 00-.051-.218c-.067-.117-.158-.13-.46-.198-.631-.133-1.23-.252-1.171-1.085.043-.62.501-1.35 1.326-1.616.442-.144.686-.067.913.016l.081-.217L32 13a9.322 9.322 0 00-.071.664c-.018.257-.018.491-.02.77l-.468.15c-.012-.187-.04-.489-.262-.65-.135-.088-.318-.098-.496-.04-.29.093-.49.349-.504.553-.014.195.124.246.36.317.212.052.425.096.63.151.326.085.849.22.793 1.008-.047.683-.568 1.467-1.452 1.753-.586.19-.875.032-1.01-.046l-.04.221L29 18c.013-.186.034-.375.048-.561.02-.301.022-.562.027-.875l.494-.16m3.471-3.732c.296-.124.602-.25.862-.562.25-.309.305-.642.357-.937l.66-.173-.1 1.172 1.08-.284-.043.49-1.07.281-.201 2.33c-.007.086-.015.18.025.237.048.055.153.088.29.053.275-.073.44-.322.573-.523l.527.013c-.135.217-.27.435-.54.673a2.46 2.46 0 01-.948.5c-.33.087-.623.073-.839-.022-.344-.16-.333-.497-.313-.722l.19-2.213-.55.144.04-.457" fill="#BD2531"/><path fill="#002E4D" d="M26 27l6.05-8L39 20.657l-6.639.093L26 27M42 6.055L33.868 10 31 6l3.405 2.377L42 6.055"/><path fill="#002E4D" d="M39.544 21L37 13.917 42 6l-3.352 8.137.896 6.863M25.199 2c-1.59 2.686-4.091 4.292-7.745 5.06L16 13h3.862c3.677-2.723 7.503-5.042 12.31-7.617L33 2h-7.801"/></g></svg>